HIERARCHY
ROOT Hips
{
  OFFSET -4.35178 90.3298 111.633
  CHANNELS 6 Xposition Yposition Zposition Zrotation Xrotation Yrotation
  JOINT LeftUpLeg
  {
    OFFSET 0.103456 1.85784 10.5485
    CHANNELS 6 Xposition Yposition Zposition Zrotation Xrotation Yrotation
    JOINT LeftLeg
    {
      OFFSET 43.5 -4.2e-05 0
      CHANNELS 6 Xposition Yposition Zposition Zrotation Xrotation Yrotation
      JOINT LeftFoot
      {
        OFFSET 42.3722 1.9e-05 0
        CHANNELS 6 Xposition Yposition Zposition Zrotation Xrotation Yrotation
        JOINT LeftToe
        {
          OFFSET 17.3 0 0
          CHANNELS 6 Xposition Yposition Zposition Zrotation Xrotation Yrotation
          End Site
          {
            OFFSET 0 0 0
          }
        }
      }
    }
  }
  JOINT RightUpLeg
  {
    OFFSET 0.103456 1.85782 -10.5485
    CHANNELS 6 Xposition Yposition Zposition Zrotation Xrotation Yrotation
    JOINT RightLeg
    {
      OFFSET 43.5 -2.7e-05 0
      CHANNELS 6 Xposition Yposition Zposition Zrotation Xrotation Yrotation
      JOINT RightFoot
      {
        OFFSET 42.3723 0 0
        CHANNELS 6 Xposition Yposition Zposition Zrotation Xrotation Yrotation
        JOINT RightToe
        {
          OFFSET 17.3 0 1.7e-05
          CHANNELS 6 Xposition Yposition Zposition Zrotation Xrotation Yrotation
          End Site
          {
            OFFSET 0 0 0
          }
        }
      }
    }
  }
  JOINT Spine
  {
    OFFSET 6.90197 -2.60373 0
    CHANNELS 6 Xposition Yposition Zposition Zrotation Xrotation Yrotation
    JOINT Spine1
    {
      OFFSET 12.5881 0 0
      CHANNELS 6 Xposition Yposition Zposition Zrotation Xrotation Yrotation
      JOINT Spine2
      {
        OFFSET 12.3432 -1.8e-05 0
        CHANNELS 6 Xposition Yposition Zposition Zrotation Xrotation Yrotation
        JOINT Neck
        {
          OFFSET 25.8329 2.3e-05 0
          CHANNELS 6 Xposition Yposition Zposition Zrotation Xrotation Yrotation
          JOINT Head
          {
            OFFSET 11.7666 0 0
            CHANNELS 6 Xposition Yposition Zposition Zrotation Xrotation Yrotation
            End Site
            {
              OFFSET 0 0 0
            }
          }
        }
        JOINT LeftShoulder
        {
          OFFSET 19.7459 -1.48035 6.0001
          CHANNELS 6 Xposition Yposition Zposition Zrotation Xrotation Yrotation
          JOINT LeftArm
          {
            OFFSET 11.2841 1.8e-05 -2e-05
            CHANNELS 6 Xposition Yposition Zposition Zrotation Xrotation Yrotation
            JOINT LeftForeArm
            {
              OFFSET 33 -1.3e-05 1.9e-05
              CHANNELS 6 Xposition Yposition Zposition Zrotation Xrotation Yrotation
              JOINT LeftHand
              {
                OFFSET 25.2 3.2e-05 1.1e-05
                CHANNELS 6 Xposition Yposition Zposition Zrotation Xrotation Yrotation
                End Site
                {
                  OFFSET 0 0 0
                }
              }
            }
          }
        }
        JOINT RightShoulder
        {
          OFFSET 19.7461 -1.48036 -6.00008
          CHANNELS 6 Xposition Yposition Zposition Zrotation Xrotation Yrotation
          JOINT RightArm
          {
            OFFSET 11.2841 0 0
            CHANNELS 6 Xposition Yposition Zposition Zrotation Xrotation Yrotation
            JOINT RightForeArm
            {
              OFFSET 33.0001 1.6e-05 0
              CHANNELS 6 Xposition Yposition Zposition Zrotation Xrotation Yrotation
              JOINT RightHand
              {
                OFFSET 25.1998 0.000123 0.000432
                CHANNELS 6 Xposition Yposition Zposition Zrotation Xrotation Yrotation
                End Site
                {
                  OFFSET 0 0 0
                }
              }
            }
          }
        }
      }
    }
  }
}
MOTION
Frames:	4
Frame Time:	0.0333333
-43.0941 96.6267 54.7712 81.5675 41.8147 11.6418 0.103456 1.85784 10.5485 10.8282 7.55261 -178.899 43.5 -4.2e-05 1e-05 -37.1725 -7.80784 -6.70984 42.3722 1.9e-05 1.77636e-15 99.9881 -16.7145 11.5295 17.3 0 3e-06 21.4546 -1e-06 0.003093 0.103456 1.85782 -10.5485 -27.7125 1.15791 176.106 43.5 -2.7e-05 4e-06 -71.8898 10.6926 1.93018 42.3723 0 1e-05 78.9563 11.5414 -19.2515 17.3 -6e-06 1.7e-05 21.4546 -1.9e-05 -0.003116 6.90197 -2.60373 -3e-06 11.3484 -0.81622 -0.238228 12.5881 1e-05 8e-06 12.7012 -1.51912 -0.272058 12.3432 -1.8e-05 -5e-06 12.4066 -1.34287 -0.161824 25.8329 2.3e-05 7e-06 10.1312 -2.66018 -8.33042 11.7666 -8e-06 -6e-06 -14.1445 -0.18686 4.1639 19.7459 -1.48035 6.0001 -172.329 15.6554 -85.7754 11.2841 1.8e-05 -2e-05 31.9709 -35.8269 87.321 33 -1.3e-05 1.9e-05 -124.323 -14.4735 3.04837 25.2 3.2e-05 1.1e-05 -14.4508 17.1419 3.47444 19.7461 -1.48036 -6.00008 -165.969 -15.0788 69.9241 11.2841 7.10543e-15 -1e-06 -15.1198 -3.02188 -42.9921 33.0001 1.6e-05 -1e-06 -100.331 -9.92463 23.9763 25.1998 0.000123 0.000432 -9.40225 -35.7945 29.8329 
-47.6713 97.5302 58.6863 83.0718 40.967 9.97503 0.103456 1.85784 10.5485 13.2166 5.9425 -178.632 43.5 -4.2e-05 1e-05 -37.5941 -8.48792 -7.347 42.3722 1.9e-05 -1.77636e-15 93.2083 -17.2156 12.6115 17.3 7.10543e-15 3e-06 21.4546 -1e-06 0.003093 0.103456 1.85782 -10.5485 -24.4176 2.58548 175.497 43.5 -2.7e-05 4e-06 -50.7362 9.92558 4.72405 42.3723 0 1e-05 72.6965 16.8356 -23.7762 17.3 -6e-06 1.7e-05 21.4546 -1.9e-05 -0.003116 6.90197 -2.60373 -3e-06 10.924 -0.997092 -0.0620231 12.5881 1e-05 8e-06 11.859 -1.85156 0.10913 12.3432 -1.8e-05 -5e-06 11.5687 -1.66388 0.239634 25.8329 2.3e-05 7e-06 9.62011 -1.97656 -9.05495 11.7666 -8e-06 -6e-06 -13.2685 1.13303 3.41577 19.7459 -1.48035 6.0001 -171.62 15.7846 -86.9506 11.2841 1.8e-05 -2e-05 29.5227 -34.9821 85.7579 33 -1.3e-05 1.9e-05 -127.344 -17.872 3.28882 25.2 3.2e-05 1.1e-05 -14.7049 15.152 4.30036 19.7461 -1.48036 -6.00008 -164.83 -13.8359 69.6098 11.2841 0 -1e-06 -13.2047 -4.59899 -43.1855 33.0001 1.6e-05 -1e-06 -101.823 -9.11443 24.3565 25.1998 0.000123 0.000432 -9.13939 -34.4375 27.914 
-52.4399 98.0201 62.6304 83.8745 41.0547 9.08042 0.103456 1.85784 10.5485 11.8064 5.78792 -176.763 43.5 -4.2e-05 1e-05 -44.872 -8.06044 -8.57685 42.3722 1.9e-05 -1.06581e-14 81.6561 -14.7237 12.5812 17.3 7.10543e-15 3e-06 21.4546 -1e-06 0.003093 0.103456 1.85782 -10.5485 -18.1637 4.65354 175.48 43.5 -2.7e-05 4e-06 -26.464 10.4628 4.21955 42.3723 -1.42109e-14 1e-05 59.7869 23.1435 -23.7532 17.3 -6e-06 1.7e-05 21.4546 -1.9e-05 -0.003116 6.90197 -2.60373 -3e-06 10.6317 -1.16922 0.01382 12.5881 1e-05 8e-06 11.2804 -2.18605 0.289328 12.3432 -1.8e-05 -5e-06 10.9951 -1.99533 0.440449 25.8329 2.3e-05 7e-06 9.40962 -0.805173 -9.88118 11.7666 -8e-06 -6e-06 -13.8927 2.37685 3.98505 19.7459 -1.48035 6.0001 -171.306 15.4641 -88.0495 11.2841 1.8e-05 -2e-05 24.6142 -33.7809 82.0762 33 -1.3e-05 1.9e-05 -129.235 -20.0177 3.07401 25.2 3.2e-05 1.1e-05 -13.4418 11.7048 6.94759 19.7461 -1.48036 -6.00008 -163.224 -13.1346 69.3532 11.2841 -2.13163e-14 -1e-06 -11.1133 -3.72435 -44.3084 33.0001 1.6e-05 -1e-06 -102.648 -8.59171 24.6312 25.1998 0.000123 0.000432 -7.27855 -33.498 27.0928 
-57.3135 97.2174 66.5659 83.2559 41.4793 9.15827 0.103456 1.85784 10.5485 7.9348 6.44433 -173.587 43.5 -4.2e-05 1e-05 -57.9063 -8.09689 -9.50986 42.3722 1.9e-05 3.55271e-15 71.995 -5.21194 12.7757 17.3 7.10543e-15 3e-06 21.4546 -1e-06 0.003093 0.103456 1.85782 -10.5485 -11.0722 6.46327 174.151 43.5 -2.7e-05 4e-06 -7.14063 10.3559 4.4678 42.3723 -1.42109e-14 1e-05 52.5179 25.4039 -19.991 17.3 -6e-06 1.7e-05 21.4546 -1.9e-05 -0.003116 6.90197 -2.60373 -3e-06 10.5604 -1.25857 0.0752602 12.5881 1e-05 8e-06 11.1415 -2.35347 0.427895 12.3432 -1.8e-05 -5e-06 10.8586 -2.15595 0.589204 25.8329 2.3e-05 7e-06 9.30158 -0.0216419 -10.4073 11.7666 -8e-06 -6e-06 -15.3888 2.89655 4.81703 19.7459 -1.48035 6.0001 -170.954 15.1327 -88.8644 11.2841 1.8e-05 -2e-05 19.3289 -32.1186 78.4386 33 -1.3e-05 1.9e-05 -130.278 -20.9091 2.78469 25.2 3.2e-05 1.1e-05 -11.8772 8.86351 9.63917 19.7461 -1.48036 -6.00008 -161.954 -12.7993 69.4832 11.2841 0 -1e-06 -9.69836 -2.13046 -45.4601 33.0001 1.6e-05 -1e-06 -102.871 -8.18449 24.7307 25.1998 0.000123 0.000432 -5.40979 -32.3562 26.2387 
